<svg xmlns="http://www.w3.org/2000/svg" viewBox="0 0 150 250"><defs><style>.a{stroke:#000;}.a,.d,.e,.f,.h,.i{stroke-miterlimit:10;}.a,.d{stroke-width:0.25px;}.b,.d,.f,.i{fill:#fff;}.c{fill:#e6e6e6;}.d,.f,.h{stroke:#e6e6e6;}.e,.h{fill:#fbb03b;}.e{stroke:#ccc;}.g{fill:none;}.i{stroke:#f2f2f2;}</style></defs><rect class="a" y="0.5" width="150" height="250"/><path class="b" d="M111.7,146a2.8,2.8,0,0,1-2.8-2.8V77.8a2.8,2.8,0,0,1,2.8-2.8h12.5a11.8,11.8,0,0,1,11.7,11.7v47.6A11.8,11.8,0,0,1,124.2,146Z"/><path class="c" d="M124.2,75.5a11.2,11.2,0,0,1,11.2,11.2v47.6a11.2,11.2,0,0,1-11.2,11.2H111.7a2.3,2.3,0,0,1-2.3-2.3V77.8a2.3,2.3,0,0,1,2.3-2.3h12.5m0-1H111.7a3.3,3.3,0,0,0-3.3,3.3v65.4a3.3,3.3,0,0,0,3.3,3.3h12.5a12.2,12.2,0,0,0,12.2-12.2V86.7a12.2,12.2,0,0,0-12.2-12.2Z"/><path d="M118,140a4.1,4.1,0,0,1-4.1-4.1V86.1A4.1,4.1,0,0,1,118,82h4.4a9.6,9.6,0,0,1,9.5,9.5v39a9.6,9.6,0,0,1-9.5,9.5Z"/><path class="c" d="M122.4,82.5a9.1,9.1,0,0,1,9,9v39a9.1,9.1,0,0,1-9,9H118a3.6,3.6,0,0,1-3.6-3.6V86.1a3.6,3.6,0,0,1,3.6-3.6h4.4m0-1H118a4.7,4.7,0,0,0-4.6,4.6v49.8a4.7,4.7,0,0,0,4.6,4.6h4.4a10,10,0,0,0,10-10v-39a10,10,0,0,0-10-10Z"/><path class="d" d="M25.9,52c6,20.8,5.9,27.1,4,28-4.6,2.1-22-25.1-17-31,1.4-1.7,4.5-3.5,4-5s-3.1-.7-4.5-2.5,1.2-9,1.5-9.5a12.7,12.7,0,0,1,7-6c3.7-1.2,7.5-.1,9.5.5S35,28.7,36.9,28s1.6-2.1,4-3,2.3-.2,4-1,1.8-1.9,3-2,1.3.5,4,2l2,1c4.4,2.1,6.6,3.2,9,3a9.5,9.5,0,0,0,5-2c1.9-1.4,2.4-2.8,4-3a5.1,5.1,0,0,1,3,1c2.9,1.7,3,5.1,4,5s.7-2.3,2.5-4.5a9.1,9.1,0,0,1,5-3c2.6-.6,6-.1,8,2s1,3.9,3,5,2.3-.1,5,1a5.9,5.9,0,0,1,3,2c.9,1.2.6,2,1.5,2.5s1.7-.3,3,0,1.9,1.5,4,3,2.6.9,6,3c1.3.8,1.3,1,3,2s2.4,1.3,3,2,.3,2.2,1,4,2.8,2.1,5,5a10.1,10.1,0,0,1,2,5c.4,7.4-18.1,14.6-20,12s3.2-4.5,3-11a18.2,18.2,0,0,0-1-5"/><path class="e" d="M41.9,106c3,44.6-32.4,70.3-21,85,4.7,6,11.6,2.9,56,3,38.6.1,44.9,2.4,49-3,11-14.7-26.9-41.3-24-86,2-31.4,22.8-48.3,14-59-5-6-12.9-2.2-46-3-31.1-.7-38.3-4.4-43,1C17.9,54.3,39.7,72.8,41.9,106Z"/><path class="f" d="M124.6,194.5H22.8a3.8,3.8,0,0,1-3.9-3.9L18.5,179c0-.6.9,0,1.4,0h108a1.1,1.1,0,0,1,1,1v10.3A4.2,4.2,0,0,1,124.6,194.5Z"/><path class="g" d="M8,205.5a1.1,1.1,0,0,1,0,1c-.4.5-1.4.3-2,0a2.3,2.3,0,0,1-1-1,3.1,3.1,0,0,1,0-2H5a12.1,12.1,0,0,0,1-2c.5-1.2.5-1.7,1-2a3.2,3.2,0,0,1,2,0h2"/><path class="h" d="M15,208.3l-1.8,7.3a10.5,10.5,0,0,1,2.5-2.3,5.4,5.4,0,0,1,2.7-.7,4.6,4.6,0,0,1,3.6,1.6,4.9,4.9,0,0,1,1.6,3.8,6,6,0,0,1-2.2,4.7,10.1,10.1,0,0,1-5.8,2.1l-6.6.5,1.8-1.7-.3-14.8L9.1,208l7.6-.6Zm-1.4,10.5.5.5.9.2a2.1,2.1,0,0,0,1.6-.8,2.4,2.4,0,0,0,.7-1.8,2.2,2.2,0,0,0-.1-.8l-.5-.8a7,7,0,0,0-1.9,1.5A5.6,5.6,0,0,0,13.6,218.8Z"/><path class="h" d="M39,225.2l-1.1-1.9a12.3,12.3,0,0,1-3.1,1.4,11.3,11.3,0,0,1-3.2.5,7.7,7.7,0,0,1-5.2-1.6,5.3,5.3,0,0,1-1.9-4.3,6.5,6.5,0,0,1,.5-2.7,5.7,5.7,0,0,1,1.5-2.3,5.5,5.5,0,0,1,2.2-1.4,7.6,7.6,0,0,1,2.7-.5,7.7,7.7,0,0,1,4.7,1.3,3.6,3.6,0,0,1,.1,6.2,7,7,0,0,1-4.2,1.3H30.8l-1.1-.3,2.2,1.1a7.8,7.8,0,0,0,2.2.3,5.4,5.4,0,0,0,2.5-.6,6.5,6.5,0,0,0,2-1.7Zm-11.7-8.3.9.4,1,.2a2.5,2.5,0,0,0,1.6-.5,2.4,2.4,0,0,0,.5-1.4,2.2,2.2,0,0,0-.1-.8l-.3-.6a4,4,0,0,0-2.2.9A4.4,4.4,0,0,0,27.3,216.9Z"/><path class="h" d="M54.2,225.2l-1.1-1.9a14.1,14.1,0,0,1-3.1,1.4,11.9,11.9,0,0,1-3.2.5,7.7,7.7,0,0,1-5.2-1.6,5.4,5.4,0,0,1-2-4.3,8.6,8.6,0,0,1,.5-2.7,7.3,7.3,0,0,1,1.6-2.3,6,6,0,0,1,2.1-1.4,8.7,8.7,0,0,1,2.8-.5,7.9,7.9,0,0,1,4.7,1.3,3.6,3.6,0,0,1,1.8,3.1,3.8,3.8,0,0,1-1.7,3.1,7.3,7.3,0,0,1-4.3,1.3H45.9l-1-.3a9.1,9.1,0,0,0,2.2,1.1l2.1.3a5.5,5.5,0,0,0,2.6-.6,6.1,6.1,0,0,0,1.9-1.7Zm-11.7-8.3a1.9,1.9,0,0,0,.9.4l1,.2a2.5,2.5,0,0,0,1.5-.5,2,2,0,0,0,.6-1.4,2.2,2.2,0,0,0-.1-.8l-.4-.6a4,4,0,0,0-2.1.9A3.7,3.7,0,0,0,42.5,216.9Z"/><path class="h" d="M68.9,212.6,67,220a4.7,4.7,0,0,0-1.7-1.5,5.4,5.4,0,0,0-2.1-.5,3,3,0,0,0-2.4,1,3.3,3.3,0,0,0-1,2.4,3.7,3.7,0,0,0,.5,1.7,6.6,6.6,0,0,0,1.4,1.7l-7.5.4,1.3-1.1.7-10.4-1.9-.8,6-.3-1,2.7a14.6,14.6,0,0,1,2.5-2.1,5.3,5.3,0,0,1,2.4-.6,3.3,3.3,0,0,1,1.7.4,3.6,3.6,0,0,1,1.4,1.1Z"/><path class="h" d="M81.9,225.3l-1.2-2.6a13.9,13.9,0,0,1-2.8,1.9,7.2,7.2,0,0,1-2.9.6,6.1,6.1,0,0,1-4.5-1.6,5.4,5.4,0,0,1-1.8-4.2,8.7,8.7,0,0,1,.5-2.8,7.6,7.6,0,0,1,1.5-2.3,5.3,5.3,0,0,1,2-1.3,6,6,0,0,1,2.4-.5,6.4,6.4,0,0,1,2.4.5,10,10,0,0,1,2.4,1.4l.4-2,.7,5.1-1-.7a2.7,2.7,0,0,0-1.2-.3,1.8,1.8,0,0,0-1.4.6,2,2,0,0,0-.6,1.5,1.8,1.8,0,0,0,.7,1.5,2,2,0,0,0,1.5.6l1.2-.3,1.2-1Z"/><path class="h" d="M96.2,218.8a5.7,5.7,0,0,1-.3,1.8,10.1,10.1,0,0,1-.7,1.5,7.2,7.2,0,0,1-2.6,2.3,6.1,6.1,0,0,1-3.2.8,7.3,7.3,0,0,1-4.9-1.7,5.8,5.8,0,0,1-1.9-4.5,6.3,6.3,0,0,1,1.9-4.8,7.2,7.2,0,0,1,5.1-1.8,6.4,6.4,0,0,1,4.7,1.8A6.3,6.3,0,0,1,96.2,218.8Zm-10.9-1.9a1.8,1.8,0,0,0,.8.7l1.1.2a2.8,2.8,0,0,0,1.8-.6,2.1,2.1,0,0,0,.7-1.6,1.5,1.5,0,0,0-.1-.7,2.1,2.1,0,0,0-.4-.6,8.8,8.8,0,0,0-2.4,1.1A4.3,4.3,0,0,0,85.3,216.9Z"/><path class="h" d="M111.7,208.1l-1.5.6v15l1.4,1.6-7.8-.5a7.4,7.4,0,0,1-4.8-1.8,5.2,5.2,0,0,1-1.9-4.1,6.4,6.4,0,0,1,1.6-4.5,4.6,4.6,0,0,1,3.7-1.8,6,6,0,0,1,2.7.7,8,8,0,0,1,2.2,2l-1.4-6.6-1.6-1.3Zm-8.4,7.1-.4.6a2.2,2.2,0,0,0-.1.8,2.4,2.4,0,0,0,2.5,2.5h.8l.7-.5a5.7,5.7,0,0,0-1.5-2.1A4.1,4.1,0,0,0,103.3,215.2Z"/><path class="h" d="M126.7,225.2l-1.1-1.9a12.3,12.3,0,0,1-3.1,1.4,11.3,11.3,0,0,1-3.2.5,7.7,7.7,0,0,1-5.2-1.6,5.4,5.4,0,0,1-2-4.3,6.6,6.6,0,0,1,.6-2.7,5.7,5.7,0,0,1,1.5-2.3,5.5,5.5,0,0,1,2.2-1.4,7.6,7.6,0,0,1,2.7-.5,7.9,7.9,0,0,1,4.7,1.3,3.6,3.6,0,0,1,.1,6.2,7,7,0,0,1-4.2,1.3h-1.2l-1.1-.3,2.2,1.1a7.8,7.8,0,0,0,2.2.3,5.4,5.4,0,0,0,2.5-.6,7.9,7.9,0,0,0,2-1.7ZM115,216.9l.9.4,1,.2a2.1,2.1,0,0,0,1.5-.5,2,2,0,0,0,.6-1.4,2.2,2.2,0,0,0-.1-.8l-.3-.6a4,4,0,0,0-2.2.9A4.4,4.4,0,0,0,115,216.9Z"/><path class="h" d="M141.4,212.6l-1.8,7.4a6,6,0,0,0-1.8-1.5,5.4,5.4,0,0,0-2.1-.5,3,3,0,0,0-2.4,1,3.2,3.2,0,0,0-.9,2.4,3.5,3.5,0,0,0,.4,1.7,9.6,9.6,0,0,0,1.4,1.7l-7.5.4,1.3-1.1.7-10.4-1.9-.8,6-.3-1,2.7a14.6,14.6,0,0,1,2.5-2.1,5.3,5.3,0,0,1,2.4-.6,3.3,3.3,0,0,1,1.7.4,3,3,0,0,1,1.4,1.1Z"/><path class="i" d="M12,207.5a4.6,4.6,0,0,1,2-1c1-.2,1.3.1,3,0s1.7-.3,2,0-.2,1,0,2,1.2,2.1,2,2,.8-.7,1-1a3.9,3.9,0,0,0,0-3,5.3,5.3,0,0,0-1-2c-.9-1-1.7-.8-4-2s-1.4-.9-2-1-1.5.6-3,1-2.4-.6-4,0-1.1,1.1-3,2-1.7.5-2,1,.6,2.5,1,3,3.3,3.7,5,3S9.9,209.1,12,207.5Z"/><path class="i" d="M103.6,207.7a6.2,6.2,0,0,1,2-1,29.6,29.6,0,0,1,3,0c1.3-.1,1.8-.3,2,0s-.2,1,0,2,1.3,2.2,2,2a1.4,1.4,0,0,0,1-1,3.5,3.5,0,0,0,0-3,3.7,3.7,0,0,0-1-2c-.9-1-1.6-.7-4-2s-1.3-.9-2-1-1.5.6-3,1-2.3-.5-4,0-1.1,1.2-3,2-1.7.5-2,1,.7,2.5,1,3,3.4,3.7,5,3S101.5,209.4,103.6,207.7Z"/></svg>